<svg width="820" height="820" viewBox="0 0 820 820" fill="none" xmlns="http://www.w3.org/2000/svg">
    <path fill-rule="evenodd" clip-rule="evenodd" d="M272.496 643.173C312.794 666.988 359.801 680.655 410 680.655C559.479 680.655 680.655 559.479 680.655 410C680.655 260.522 559.479 139.346 410 139.346C359.801 139.346 312.794 153.012 272.496 176.828V643.173ZM133.831 712.498C206.657 779.023 303.59 819.6 410 819.6C636.216 819.6 819.6 636.216 819.6 410C819.6 183.785 636.216 0.400391 410 0.400391C183.785 0.400391 0.400391 183.785 0.400391 410C0.400391 529.669 51.7195 637.352 133.55 712.241V712.498H133.831Z" fill="black"/>
</svg>
